<?xml version="1.0" standalone="no"?>
<!DOCTYPE svg PUBLIC "-//W3C//DTD SVG 20010904//EN"
 "http://www.w3.org/TR/2001/REC-SVG-20010904/DTD/svg10.dtd">
<svg version="1.0" xmlns="http://www.w3.org/2000/svg"
 width="900.000000pt" height="900.000000pt" viewBox="0 0 900.000000 900.000000"
 preserveAspectRatio="xMidYMid meet">

<g transform="translate(0.000000,900.000000) scale(0.100000,-0.100000)
fill="#000000" stroke="none">
<path d="M4398 8335 c-2 -3 -92 -7 -198 -10 -107 -3 -197 -9 -200 -13 -3 -4
-16 -7 -30 -7 -14 0 -47 -3 -75 -8 -27 -4 -79 -12 -115 -16 -36 -5 -105 -18
-155 -28 -49 -11 -108 -21 -130 -22 -24 -1 -46 -9 -58 -21 -10 -11 -29 -20
-42 -20 -13 0 -26 -4 -29 -9 -6 -9 -78 -24 -143 -29 -13 -1 -23 -9 -23 -18 0
-8 -4 -13 -8 -10 -5 3 -22 -2 -38 -10 -16 -9 -53 -22 -83 -30 -48 -13 -85 -29
-131 -56 -8 -5 -34 -18 -57 -29 -23 -11 -45 -24 -48 -29 -3 -6 -20 -10 -36
-10 -32 0 -64 -14 -87 -37 -12 -11 -33 -17 -54 -14 -4 0 -9 -8 -12 -17 -7 -20
-66 -52 -96 -52 -10 0 -25 -9 -33 -20 -8 -12 -18 -20 -23 -19 -19 3 -48 -3
-37 -8 25 -10 -41 -52 -89 -58 -10 -1 -20 -4 -22 -6 -3 -2 -26 -22 -52 -44
-26 -22 -67 -59 -90 -82 -24 -24 -50 -43 -58 -43 -29 0 -96 -46 -96 -66 0 -6
-9 -19 -20 -29 -11 -10 -20 -15 -20 -11 0 4 -10 -2 -22 -14 -12 -11 -26 -20
-30 -20 -5 0 -7 -4 -4 -8 2 -4 -4 -14 -16 -21 -11 -7 -17 -8 -13 -2 3 6 0 11
-8 11 -8 0 -19 -12 -25 -27 -12 -35 -47 -73 -89 -98 -21 -12 -29 -23 -23 -30
14 -17 -2 -32 -46 -44 -40 -11 -77 -51 -97 -103 -3 -10 -14 -18 -22 -18 -9 0
-13 -5 -10 -11 4 -6 -2 -13 -13 -16 -12 -3 -27 -19 -36 -36 -8 -18 -24 -40
-35 -49 -12 -10 -21 -25 -21 -34 0 -9 -6 -14 -14 -11 -17 7 -66 -54 -66 -83 0
-15 -67 -80 -81 -80 -7 0 -9 -3 -6 -6 3 -4 -2 -18 -13 -32 -11 -13 -17 -28
-14 -33 3 -5 -2 -9 -11 -9 -8 0 -19 -8 -22 -17 -4 -10 -13 -24 -20 -31 -7 -7
-13 -21 -13 -31 0 -9 -9 -27 -20 -39 -11 -12 -20 -24 -20 -27 0 -3 -14 -19
-30 -37 -17 -17 -28 -33 -26 -36 3 -2 -1 -11 -9 -19 -9 -8 -15 -33 -15 -59 0
-29 -4 -43 -12 -41 -7 1 -20 -13 -29 -31 -9 -18 -26 -40 -36 -50 -27 -23 -39
-49 -48 -99 -4 -27 -12 -43 -21 -43 -8 0 -14 -8 -14 -17 0 -10 -14 -45 -30
-77 -17 -32 -30 -66 -30 -76 0 -9 -3 -20 -7 -24 -11 -10 -33 -79 -33 -102 0
-13 -8 -24 -20 -27 -14 -3 -20 -14 -21 -34 -1 -15 -3 -35 -4 -43 -1 -15 -2
-19 -25 -80 -7 -19 -21 -66 -31 -105 -10 -38 -23 -78 -29 -87 -5 -10 -10 -28
-10 -42 0 -13 -7 -40 -15 -59 -8 -20 -12 -43 -9 -51 3 -8 -3 -27 -13 -42 -13
-21 -20 -59 -26 -143 -17 -253 -23 -325 -26 -311 -1 10 -6 6 -12 -9 -6 -16 -6
-27 0 -31 13 -8 11 -160 -2 -160 -7 0 -7 -69 -2 -192 4 -106 7 -208 6 -227 -1
-18 2 -38 7 -45 9 -10 15 -57 26 -206 2 -30 9 -84 15 -120 5 -36 14 -90 19
-120 4 -30 14 -65 20 -77 7 -12 12 -37 12 -57 0 -19 4 -37 8 -40 5 -3 15 -31
22 -63 8 -32 14 -60 15 -63 5 -16 18 -47 26 -62 5 -10 9 -41 9 -69 0 -43 3
-52 20 -56 11 -3 23 -17 26 -32 3 -14 14 -52 25 -84 10 -31 19 -65 19 -76 0
-10 9 -28 19 -40 11 -13 23 -35 26 -51 3 -16 13 -34 21 -41 8 -6 14 -17 14
-23 0 -6 9 -17 20 -24 11 -7 20 -20 20 -30 0 -51 32 -138 61 -164 16 -14 28
-30 27 -35 -1 -4 6 -20 16 -35 10 -15 14 -33 10 -39 -4 -7 -3 -10 2 -6 5 3 18
-15 28 -39 14 -34 23 -44 41 -44 17 0 27 -9 36 -32 7 -18 12 -41 11 -50 -1
-10 12 -28 28 -40 17 -12 30 -28 30 -35 0 -14 31 -62 64 -98 10 -11 28 -36 41
-55 12 -19 50 -63 84 -96 33 -34 61 -67 61 -73 0 -12 4 -18 51 -71 16 -18 29
-30 29 -27 0 4 12 -5 26 -18 15 -14 31 -25 35 -25 4 0 11 -16 15 -35 6 -34 26
-46 40 -24 9 15 23 -9 19 -33 -2 -10 0 -18 5 -18 5 0 15 -6 22 -13 7 -6 24
-18 38 -25 14 -7 34 -30 45 -50 11 -20 34 -44 52 -52 17 -8 34 -23 36 -33 3
-9 12 -17 21 -17 9 0 16 -4 16 -10 0 -5 5 -10 10 -10 6 0 24 -12 41 -27 60
-56 80 -73 85 -73 4 0 23 -14 44 -30 21 -17 43 -30 49 -30 6 0 11 -11 11 -25
0 -14 6 -25 13 -26 37 -2 62 -12 78 -30 14 -16 25 -20 44 -15 17 4 25 2 25 -7
0 -8 18 -22 40 -33 22 -10 38 -24 35 -31 -2 -7 2 -10 9 -7 8 3 17 0 22 -7 5
-8 3 -10 -7 -5 -8 4 -3 -2 11 -13 14 -12 42 -24 62 -27 21 -4 52 -20 74 -40
20 -19 42 -34 48 -34 7 0 31 -9 54 -20 22 -11 51 -20 63 -20 12 0 29 -9 39
-20 17 -20 101 -60 126 -60 8 0 17 -7 20 -15 4 -8 16 -15 29 -15 30 0 95 -28
95 -40 0 -6 18 -10 41 -10 24 0 38 -4 34 -10 -3 -6 1 -7 9 -4 9 3 16 1 16 -5
0 -7 6 -11 13 -10 19 4 127 -23 127 -32 0 -4 25 -13 55 -19 30 -6 55 -16 55
-21 0 -6 3 -8 8 -6 4 3 54 -6 112 -19 58 -14 125 -27 150 -31 25 -3 48 -10 51
-16 4 -5 37 -9 73 -8 37 1 76 -3 87 -9 10 -6 61 -13 112 -16 50 -4 95 -11 98
-16 5 -7 18 -7 40 1 22 7 57 8 102 3 37 -5 145 -5 239 0 130 6 174 5 180 -4 5
-10 17 -10 53 0 25 7 71 12 103 12 31 0 84 7 117 15 33 8 89 15 125 15 48 1
60 4 45 11 -18 8 -18 9 5 7 14 -1 45 2 70 7 25 5 49 8 54 7 4 -2 14 2 22 9 8
6 24 9 36 6 12 -4 36 0 52 7 48 22 97 38 141 46 22 5 59 15 83 24 24 9 51 18
60 19 9 2 31 11 48 20 17 9 34 14 37 11 3 -3 16 1 29 9 12 8 41 20 63 27 22 7
45 16 50 20 6 4 25 11 43 15 43 9 192 82 192 94 0 5 18 12 40 16 56 9 130 49
144 77 7 14 22 24 36 25 14 0 28 2 33 3 4 1 10 3 15 5 59 16 63 18 50 26 -10
7 -10 9 3 9 9 0 24 9 34 20 10 11 22 20 28 20 14 0 72 52 69 62 -1 5 3 8 10 7
21 -3 68 19 74 36 4 8 16 15 27 15 12 0 38 18 59 41 20 22 46 41 57 42 11 0
17 5 15 9 -5 7 11 11 20 6 2 -2 18 13 36 32 56 63 133 130 149 130 6 0 11 4
11 10 0 5 14 16 30 25 18 9 30 23 30 35 0 11 4 20 9 20 5 0 33 25 62 56 30 32
63 64 74 73 10 9 31 29 45 44 14 16 46 51 72 78 26 27 44 49 41 49 -3 0 6 9
19 20 14 11 28 33 32 50 4 23 10 31 23 28 21 -4 67 52 77 96 4 15 15 30 24 33
18 4 68 72 64 86 -1 4 9 19 23 33 14 14 25 33 25 43 0 11 7 21 15 25 8 3 15
15 15 26 0 11 8 24 17 27 18 7 54 40 52 48 -2 14 20 63 35 78 9 9 19 31 21 49
2 19 13 39 25 47 11 7 20 19 20 26 0 7 9 24 20 37 10 14 27 47 36 74 9 27 21
52 28 56 6 4 8 8 4 8 -10 0 12 60 23 60 17 0 73 156 62 173 -3 6 -2 7 4 4 5
-3 18 23 28 59 10 35 22 64 27 64 4 0 8 9 8 20 0 11 11 44 24 74 22 49 36 95
41 136 1 8 5 22 8 30 3 8 11 34 17 57 6 23 15 45 20 48 6 3 10 22 10 42 0 20
4 63 10 97 5 33 15 90 20 126 6 36 12 85 14 110 1 25 9 79 17 120 18 95 18
832 0 838 -6 2 -11 28 -11 58 0 30 -4 54 -9 54 -5 0 -12 46 -16 103 -4 56 -10
107 -14 112 -6 10 -10 38 -11 88 -1 15 -5 27 -9 27 -5 0 -14 27 -20 60 -7 33
-15 60 -19 60 -4 0 -8 8 -9 18 -3 44 -33 142 -44 142 -6 0 -7 5 -4 10 4 6 -1
22 -10 36 -9 14 -14 28 -11 31 3 4 1 11 -4 18 -10 12 -18 45 -19 77 -1 10 -9
25 -20 35 -19 18 -28 48 -38 116 -3 20 -9 37 -14 37 -5 0 -9 5 -9 10 0 6 -9
23 -21 39 -11 15 -21 34 -23 42 -1 8 -8 25 -15 37 -7 13 -10 35 -7 48 5 17 2
24 -9 24 -8 0 -15 6 -15 14 0 8 -11 23 -25 34 -14 11 -25 28 -25 37 0 9 -10
31 -22 48 -25 35 -25 34 -27 80 -1 19 -4 27 -9 20 -5 -8 -14 -1 -26 22 -11 19
-29 41 -41 49 -13 9 -25 30 -29 50 -5 25 -16 41 -36 53 -17 9 -31 26 -31 38
-1 11 -2 27 -3 35 -1 9 -11 26 -23 40 -13 13 -23 29 -23 34 0 6 -14 17 -30 25
-24 10 -33 23 -42 57 -7 24 -17 44 -24 44 -6 0 -14 9 -17 20 -3 12 -14 20 -26
20 -12 0 -21 4 -21 10 0 18 -51 85 -71 92 -12 5 -19 17 -19 33 0 14 -5 25 -10
25 -6 0 -26 16 -46 35 -19 19 -40 34 -47 32 -6 -1 -11 4 -9 11 1 6 -2 12 -8
12 -5 0 -10 4 -10 10 0 16 -43 61 -67 71 -14 5 -23 17 -23 29 0 11 -4 20 -8
20 -5 0 -24 14 -43 31 -19 17 -51 40 -72 51 -22 10 -37 22 -34 25 3 3 -5 15
-19 28 -13 12 -24 27 -24 34 0 6 -9 11 -19 11 -11 0 -23 9 -26 20 -4 11 -10
18 -15 15 -4 -2 -19 4 -32 15 -14 11 -28 17 -31 13 -4 -3 -28 17 -54 46 -26
28 -55 51 -65 51 -10 0 -18 7 -18 15 0 9 -11 21 -25 27 -14 6 -25 16 -25 21 0
5 -7 4 -15 -3 -13 -11 -20 -9 -43 11 -15 13 -29 27 -32 30 -3 4 -15 9 -27 13
-13 4 -23 12 -23 17 0 6 -4 7 -10 4 -5 -3 -10 1 -10 9 0 15 -77 62 -86 53 -3
-2 -21 1 -42 8 -24 9 -38 20 -40 33 -3 20 -66 56 -144 81 -21 7 -40 17 -43 21
-3 5 -23 14 -45 20 -21 6 -45 16 -52 23 -24 21 -57 37 -78 37 -11 0 -28 4 -38
10 -21 12 -98 40 -132 47 -14 3 -27 10 -30 14 -3 4 -20 11 -38 14 -18 3 -65
16 -105 29 -73 24 -116 36 -152 43 -10 2 -22 7 -25 12 -3 4 -32 11 -64 15 -33
4 -66 12 -73 17 -7 6 -24 9 -38 7 -14 -3 -27 -2 -30 1 -2 4 -19 8 -37 9 -37 3
-56 6 -78 15 -8 3 -53 8 -99 12 -47 3 -91 11 -99 17 -13 11 -513 23 -524 13z
m-31 -356 c-10 -6 -35 -12 -55 -13 -20 -1 -44 -5 -52 -9 -8 -3 -40 -8 -70 -11
-171 -15 -450 -72 -645 -131 -148 -46 -235 -76 -330 -118 -74 -32 -114 -50
-295 -135 -226 -107 -553 -336 -773 -542 -177 -166 -311 -313 -425 -465 -111
-147 -104 -140 -118 -120 -10 14 -10 23 4 51 9 18 23 32 30 29 7 -2 12 4 12
14 0 10 10 32 23 49 54 74 142 188 152 197 6 6 24 27 40 49 74 102 293 310
490 467 66 53 284 199 370 249 95 54 287 151 375 188 109 46 345 129 405 142
22 5 74 17 115 28 139 37 372 74 489 78 40 2 75 4 76 6 2 2 48 4 102 5 72 1
93 -1 80 -8z m-1117 -909 c0 -5 -7 -10 -15 -10 -8 0 -15 5 -15 10 0 6 7 10 15
10 8 0 15 -4 15 -10z m110 -75 c0 -9 -9 -15 -24 -15 -13 0 -29 7 -36 15 -11
13 -7 15 24 15 25 0 36 -4 36 -15z m-20 -113 c0 -14 -11 -21 -26 -15 -21 8
-17 23 6 23 11 0 20 -4 20 -8z m-1774 -540 c-14 -14 -16 -14 -16 -1 0 20 23
44 29 28 2 -6 -4 -18 -13 -27z m3202 -518 c57 -14 111 -29 120 -34 10 -5 52
-23 95 -41 106 -43 232 -135 338 -248 117 -124 149 -182 180 -325 13 -59 13
-59 -15 -82 -33 -29 -46 -30 -39 -4 6 22 -15 27 -47 10 -22 -12 -25 -4 -35 76
-4 33 -3 54 4 59 21 12 7 55 -54 166 -38 68 -234 227 -364 295 -101 52 -219
76 -272 54 -23 -10 -46 -10 -108 0 -60 9 -84 9 -100 0 -12 -6 -75 -26 -139
-43 -129 -35 -194 -72 -328 -185 -66 -56 -162 -173 -177 -215 -6 -15 -3 -17
14 -12 19 6 20 4 17 -85 -2 -83 -1 -94 18 -109 13 -10 25 -39 33 -81 7 -36 14
-73 16 -84 3 -16 -1 -18 -41 -13 -33 3 -47 1 -53 -10 -4 -9 -25 -17 -46 -18
-44 -2 -56 -18 -53 -65 l3 -35 50 1 c32 0 54 -4 60 -13 14 -19 142 -23 176 -6
25 11 27 18 31 90 2 45 -2 99 -9 128 -7 27 -13 63 -13 80 0 17 -9 47 -20 68
-25 46 -25 47 0 47 23 0 80 38 80 53 0 6 -18 7 -42 3 -40 -7 -41 -6 -25 12 9
10 17 24 17 30 0 6 10 18 21 26 12 8 27 25 33 38 6 13 17 24 24 24 7 1 17 2
23 3 6 0 8 8 5 17 -4 9 -1 23 6 31 12 15 78 46 85 40 3 -4 -76 -147 -94 -169
-12 -14 -43 -134 -43 -163 0 -10 7 -26 15 -35 16 -17 11 -85 -6 -75 -13 9 -22
-16 -10 -28 8 -8 11 -8 11 2 0 7 4 10 9 7 5 -3 12 -34 15 -68 15 -150 28 -237
44 -288 35 -120 142 -249 267 -324 51 -31 67 -36 123 -36 115 0 191 35 272
127 107 122 156 268 177 533 3 36 11 74 19 85 21 34 -6 229 -40 283 -14 23
-26 46 -26 51 0 5 16 9 35 8 33 -1 35 -3 35 -33 0 -65 41 -134 67 -113 10 9
13 8 13 -5 0 -39 25 -96 42 -96 22 0 23 -27 2 -69 -11 -23 -21 -30 -33 -26
-29 9 -45 -34 -31 -83 12 -38 15 -41 59 -47 82 -12 123 -48 92 -80 -15 -15
-25 -85 -13 -85 6 0 14 5 17 10 9 15 35 12 35 -4 0 -21 15 -28 45 -20 19 5 23
10 16 17 -19 19 -12 26 34 33 54 8 61 4 44 -27 -6 -13 -12 -37 -13 -54 -1 -27
-4 -30 -35 -30 -22 -1 -38 -7 -45 -19 -6 -10 -17 -25 -23 -34 -11 -15 -13 -13
-11 13 3 46 -7 55 -42 42 -23 -9 -30 -18 -30 -38 0 -36 -39 -57 -76 -40 -22
10 -31 9 -50 -4 -29 -19 -30 -29 -4 -57 23 -25 26 -48 8 -66 -16 -16 -51 -15
-66 0 -10 10 -15 10 -21 0 -7 -11 -10 -10 -15 3 -4 10 3 25 19 39 17 16 25 34
25 55 0 43 -18 36 -35 -13 -8 -22 -18 -42 -23 -45 -5 -3 -37 -40 -70 -82 -33
-42 -74 -86 -91 -98 -17 -12 -31 -29 -31 -37 0 -21 11 -17 60 26 31 28 47 36
52 27 14 -22 8 -56 -14 -77 -21 -19 -21 -21 -5 -37 16 -16 20 -14 67 32 27 27
50 55 50 62 0 17 10 16 31 -2 15 -15 20 -14 55 10 44 29 124 120 124 140 0 7
13 16 28 20 31 6 92 77 92 107 0 10 7 21 15 25 27 10 30 -6 7 -37 -12 -16 -22
-32 -22 -36 0 -18 -89 -136 -149 -197 -75 -78 -164 -134 -266 -168 -38 -13
-76 -30 -84 -37 -8 -8 -24 -11 -40 -7 -21 4 -29 0 -43 -25 -17 -29 -20 -30
-85 -31 -37 0 -85 0 -106 0 -21 -1 -44 4 -52 11 -8 7 -29 10 -47 7 -38 -5 -96
13 -139 43 -21 16 -29 30 -29 52 0 34 -23 35 -28 1 -3 -20 -7 -19 -80 19 -154
79 -342 250 -342 310 0 7 -9 19 -20 26 -11 7 -20 19 -20 26 0 8 -10 27 -23 43
-13 15 -34 55 -47 88 -13 33 -36 78 -51 100 -46 69 -55 239 -19 381 26 106
101 227 227 371 117 133 347 250 553 281 156 25 162 24 318 -14z m2654 -7 c12
-19 4 -30 -30 -39 -37 -10 -43 -18 -47 -66 -2 -20 -7 -80 -12 -132 -4 -52 -4
-196 0 -320 5 -123 5 -263 0 -311 -5 -48 -5 -99 -2 -114 16 -59 15 -1687 -1
-1715 -17 -30 -29 38 -35 192 -7 198 -7 281 -1 343 22 196 17 255 -19 255 -21
0 -27 17 -15 40 16 30 3 60 -26 60 -13 0 -24 5 -24 11 0 6 -13 1 -29 -10 -33
-24 -41 -26 -41 -11 0 6 -9 23 -20 38 -18 24 -19 31 -8 60 12 30 11 35 -6 44
-26 15 -56 46 -56 59 0 7 10 9 25 5 19 -5 25 -2 25 10 0 12 6 15 23 10 12 -3
34 -6 48 -6 23 0 28 -6 33 -35 4 -19 2 -43 -3 -54 -8 -14 -7 -22 4 -31 18 -15
45 -6 45 13 0 8 7 21 16 28 12 10 15 24 10 59 -4 33 -2 52 10 68 20 29 11 99
-15 107 -9 3 -22 20 -29 38 -16 45 -15 50 7 44 14 -3 21 2 26 21 11 44 -19 51
-42 8 -10 -17 -11 -17 -32 5 -11 12 -21 30 -21 38 0 25 -50 149 -65 161 -23
19 -31 -17 -12 -54 8 -17 18 -42 21 -56 3 -14 14 -35 24 -46 11 -11 22 -33 25
-50 3 -16 8 -45 12 -66 10 -49 -13 -62 -92 -49 -48 7 -59 6 -69 -7 -14 -19
-16 -152 -3 -152 6 0 7 -15 3 -35 -4 -22 -2 -35 5 -35 5 0 15 -9 21 -20 8 -16
6 -24 -11 -41 -20 -20 -21 -25 -10 -55 9 -25 9 -39 1 -55 -7 -11 -9 -32 -5
-46 6 -24 7 -24 24 -9 42 38 116 -3 109 -60 -2 -23 -9 -30 -38 -35 -43 -9 -90
13 -90 42 0 14 -6 19 -17 18 -10 -2 -28 2 -40 9 -19 10 -24 9 -42 -14 -11 -14
-22 -30 -24 -37 -3 -9 -8 -9 -17 -1 -9 9 -9 17 -1 32 6 10 7 22 4 26 -11 11
-33 6 -33 -8 0 -7 -13 -16 -29 -19 -31 -7 -45 -43 -34 -88 6 -21 5 -22 -10
-11 -9 8 -43 55 -77 105 -99 149 -128 191 -147 216 -44 58 -165 252 -171 275
-4 16 -1 18 18 13 13 -3 30 -1 37 5 10 8 21 8 40 -1 28 -13 109 -5 119 11 15
24 -22 36 -121 39 -31 1 -79 -13 -87 -25 -10 -14 -57 42 -58 69 0 11 -16 38
-34 60 -32 37 -36 39 -51 24 -9 -9 -18 -38 -20 -70 -9 -112 -7 -441 4 -629 21
-368 24 -376 162 -465 64 -42 109 -95 109 -129 0 -20 -29 -21 -36 -1 -3 8 -24
28 -46 44 -31 23 -47 28 -73 24 -26 -4 -37 0 -58 23 -15 15 -31 42 -38 58 -6
17 -20 54 -32 81 -17 42 -21 82 -27 241 -4 105 -10 196 -13 202 -4 5 -2 23 4
39 7 17 8 56 4 101 -6 61 -11 77 -33 97 -26 24 -27 24 -42 6 -20 -24 -56 -32
-86 -19 -31 14 -50 -1 -65 -53 -10 -32 -9 -42 4 -63 15 -22 15 -29 3 -57 l-14
-33 -18 35 -19 34 -5 -64 c-3 -39 -10 -66 -17 -69 -7 -2 -13 2 -14 10 0 7 -3
27 -5 43 -3 17 -7 367 -9 779 l-3 749 -39 75 c-21 41 -48 82 -61 91 -74 52
-96 74 -97 94 0 19 -7 23 -57 29 -70 9 -100 24 -96 46 3 15 33 17 324 20 306
2 321 1 338 -17 17 -18 17 -20 -2 -39 -16 -16 -29 -19 -61 -15 -22 3 -52 2
-66 -1 -22 -6 -25 -9 -15 -21 7 -8 23 -15 36 -15 34 0 76 -18 91 -40 8 -11 22
-20 32 -20 10 0 30 -12 45 -26 30 -31 33 -22 10 31 -8 20 -14 44 -12 53 11 50
131 -233 226 -529 55 -171 159 -393 282 -598 55 -93 76 -137 82 -179 7 -44 17
-64 48 -99 22 -23 40 -47 40 -53 0 -5 6 -10 14 -10 14 0 18 8 30 60 3 14 5
212 5 440 0 228 0 492 1 585 1 96 -3 188 -8 210 -6 22 -13 52 -16 66 -3 15
-19 41 -36 59 -16 18 -30 34 -30 36 0 3 11 9 25 14 33 13 32 25 -4 40 -24 10
-35 9 -65 -5 -20 -10 -36 -21 -36 -26 0 -5 -8 -9 -18 -9 -11 0 -29 -9 -42 -20
-27 -23 -50 -26 -50 -6 0 23 74 115 102 127 20 8 53 8 130 -1 106 -13 292 -8
383 9 58 11 106 6 117 -12z m-5200 -32 c25 -54 30 -54 -497 -53 -381 0 -359
-2 -363 26 -8 54 -26 52 428 52 l420 0 12 -25z m1108 11 c15 -18 5 -52 -18
-62 -26 -11 -642 -14 -684 -3 -27 7 -48 5 -83 -7 -46 -15 -48 -15 -71 7 -31
29 -28 61 6 70 14 3 208 7 431 8 345 1 408 -1 419 -13z m-1170 -110 c0 -11
-19 -15 -25 -6 -3 5 1 10 9 10 9 0 16 -2 16 -4z m527 -20 c11 -13 26 -25 33
-28 15 -5 29 -133 23 -208 -7 -69 2 -110 22 -110 8 0 19 -16 24 -37 16 -56 13
-61 -13 -28 -22 27 -25 28 -32 11 -4 -10 -2 -39 4 -64 7 -31 7 -53 0 -68 -7
-14 -8 -52 -3 -98 7 -78 23 -105 23 -40 0 41 12 57 38 52 12 -2 20 -13 22 -31
2 -16 10 -31 18 -34 8 -3 14 -16 14 -30 0 -48 54 -71 87 -37 15 14 15 18 0 43
-13 22 -14 35 -6 64 11 42 12 43 33 21 9 -8 20 -12 26 -9 19 12 10 34 -25 55
-30 18 -38 20 -51 9 -26 -21 -47 15 -38 66 8 50 19 63 70 86 52 22 54 26 55
89 2 61 23 131 32 106 4 -9 9 -92 13 -183 3 -92 10 -177 15 -190 9 -24 42 -31
69 -13 17 11 22 6 150 -127 41 -42 126 -128 188 -191 112 -112 130 -142 88
-150 -10 -2 -38 11 -63 28 -24 18 -56 33 -71 35 -45 5 -97 21 -123 37 -13 9
-37 16 -54 17 -30 1 -44 3 -120 16 -29 4 -46 2 -60 -8 -19 -15 -20 -29 -23
-419 -5 -646 -4 -699 19 -724 10 -11 26 -41 35 -67 18 -52 53 -83 105 -94 43
-8 129 -94 129 -128 0 -32 -20 -42 -37 -19 -13 18 -35 19 -398 22 -337 3 -387
1 -407 -12 -31 -22 -38 -20 -38 12 0 43 40 92 100 121 69 33 88 61 96 138 5
41 13 68 25 79 14 13 16 21 7 46 -8 21 -7 40 1 66 13 40 17 305 11 739 l-4
252 -25 5 c-69 13 -109 19 -136 21 -115 10 -198 24 -206 36 -11 18 16 33 47
25 14 -4 24 -2 24 4 0 5 14 10 31 10 17 0 39 5 51 11 11 6 34 12 51 15 34 4
52 17 43 32 -3 5 -58 12 -123 15 -118 7 -227 -3 -247 -23 -17 -17 7 -44 45
-50 l34 -5 -30 -21 c-26 -18 -43 -20 -125 -18 -63 2 -106 -2 -127 -11 -33 -14
-33 -15 -33 -84 0 -38 -5 -82 -11 -98 l-11 -28 -13 35 c-8 19 -14 55 -14 80
-1 25 -7 57 -15 72 -13 24 -12 30 10 62 13 19 31 39 39 44 14 7 14 12 0 40 -9
17 -16 51 -16 74 0 24 -5 78 -11 121 -11 73 -21 93 -31 65 -2 -7 -8 -10 -13
-5 -4 4 2 28 14 52 25 52 27 65 10 65 -6 0 -20 7 -29 16 -17 15 -20 15 -44 0
-15 -10 -38 -16 -53 -14 -23 3 -27 8 -30 41 -4 41 -31 53 -34 15 0 -13 -2 -27
-3 -33 -2 -5 -3 -14 -4 -19 0 -6 -7 -2 -14 9 -9 12 -16 14 -21 7 -9 -15 -29
-180 -23 -195 8 -22 -19 -164 -36 -191 -13 -20 -23 -25 -40 -21 -13 4 -43 -1
-68 -9 -37 -13 -61 -14 -135 -5 -49 5 -105 7 -124 4 -22 -4 -42 -1 -54 8 -19
14 -18 15 3 36 22 22 29 23 169 20 92 -1 163 2 189 10 40 11 44 15 59 68 14
48 15 86 9 263 -8 217 -6 228 35 215 13 -4 20 -15 20 -31 0 -13 5 -24 10 -24
6 0 20 -9 32 -20 26 -24 68 -27 68 -5 0 11 7 13 29 9 27 -6 30 -3 44 37 15 46
15 46 34 -11 4 -12 7 -11 13 5 4 11 6 23 4 26 -2 4 3 12 11 19 8 7 15 19 15
26 0 24 20 15 20 -8 4 -161 23 -426 34 -471 24 -96 -4 -90 360 -84 318 4 320
4 335 27 12 18 15 59 14 214 -3 404 -6 428 -72 456 -36 14 -32 30 8 30 16 0
36 -9 48 -24z m1968 12 c21 -10 28 -9 35 2 7 12 13 12 34 0 14 -7 26 -19 26
-27 0 -7 7 -13 15 -13 8 0 15 9 15 20 0 13 7 20 20 20 22 0 25 -16 10 -54 -10
-28 -40 -36 -40 -11 0 8 -4 15 -10 15 -5 0 -10 -4 -10 -9 0 -15 -98 -5 -125
13 -28 18 -27 18 -19 40 7 19 15 20 49 4z m-2667 -26 c2 -12 -1 -22 -7 -22
-13 0 -32 35 -24 44 12 12 28 0 31 -22z m797 18 c3 -6 -1 -13 -10 -16 -19 -8
-30 0 -20 15 8 14 22 14 30 1z m1770 -20 c50 0 14 -18 -40 -20 -69 -2 -73 -1
-50 16 11 8 29 13 40 10 11 -3 33 -6 50 -6z m-1606 -48 c8 -23 12 -44 9 -47
-3 -4 -20 1 -36 9 -25 13 -30 21 -26 43 11 58 31 56 53 -5z m161 38 c0 -5 -7
-10 -15 -10 -8 0 -15 5 -15 10 0 6 7 10 15 10 8 0 15 -4 15 -10z m-90 -10 c0
-5 -4 -10 -10 -10 -5 0 -10 5 -10 10 0 6 5 10 10 10 6 0 10 -4 10 -10z m1943
-3 c4 -10 -2 -13 -19 -9 -13 2 -24 8 -24 13 0 14 37 10 43 -4z m-597 -61 c-16
-12 -45 -36 -64 -53 -40 -37 -62 -42 -62 -13 0 13 21 31 67 59 69 40 111 45
59 7z m494 1 c0 -8 18 -33 40 -57 22 -24 40 -49 40 -57 0 -7 5 -13 10 -13 6 0
10 -10 10 -22 -1 -22 -1 -22 -12 -3 -6 11 -38 45 -71 76 -44 40 -59 60 -54 72
8 20 37 23 37 4z m-1966 -28 c12 -18 12 -26 -1 -67 -21 -62 -30 -71 -42 -40
-11 28 -29 44 -39 34 -3 -4 -9 -28 -12 -54 -6 -59 -26 -53 -22 7 4 51 13 71
50 112 30 34 46 36 66 8z m2236 -19 c0 -13 -7 -13 -31 1 -11 5 -17 14 -14 20
7 11 45 -7 45 -21z m150 -137 c17 -14 30 -35 30 -45 0 -10 7 -21 15 -24 16 -7
21 -34 6 -34 -5 0 -15 9 -22 20 -8 12 -24 22 -36 23 -17 1 -23 8 -23 24 0 12
-4 25 -10 28 -13 8 -13 35 0 35 6 0 24 -12 40 -27z m-2415 -93 c-5 -8 -11 -8
-17 -2 -6 6 -7 16 -3 22 5 8 11 8 17 2 6 -6 7 -16 3 -22z m28 -53 c-7 -11 -23
12 -23 33 1 12 4 11 15 -4 8 -10 12 -23 8 -29z m1047 -49 c0 -18 -2 -20 -9 -8
-6 8 -7 18 -5 22 9 14 14 9 14 -14z m1446 -156 c-22 -22 -32 -7 -17 25 12 25
13 26 23 9 8 -13 6 -22 -6 -34z m-2496 8 c0 -11 -4 -20 -9 -20 -14 0 -23 18
-16 30 10 17 25 11 25 -10z m-1050 -90 c0 -5 -5 -10 -11 -10 -5 0 -7 5 -4 10
3 6 8 10 11 10 2 0 4 -4 4 -10z m72 -45 c-2 -14 -8 -25 -13 -25 -10 0 -12 34
-2 43 13 14 20 6 15 -18z m3614 -72 c-10 -10 -19 5 -10 18 6 11 8 11 12 0 2
-7 1 -15 -2 -18z m-3890 -18 c14 -22 18 -23 28 -10 15 21 36 5 46 -36 5 -19
12 -45 16 -58 6 -19 4 -22 -12 -19 -12 2 -21 14 -24 33 -3 17 -10 28 -15 25
-10 -5 -10 -24 -1 -85 2 -16 4 -36 5 -44 1 -8 8 -11 20 -8 16 4 24 -7 46 -54
27 -61 44 -71 78 -45 10 8 27 12 37 9 23 -6 25 -14 9 -30 -8 -8 -8 -17 0 -32
14 -25 46 -28 59 -5 16 29 29 7 36 -58 11 -102 16 -531 6 -543 -4 -5 -10 -21
-12 -35 -2 -20 -8 -24 -29 -22 -23 2 -26 -1 -21 -23 3 -16 -2 -33 -13 -45 -9
-10 -18 -36 -20 -57 -2 -21 -6 -54 -10 -74 -6 -30 -3 -41 14 -58 25 -25 25
-28 6 -47 -8 -9 -18 -27 -21 -42 -10 -47 -13 -52 -33 -52 -15 0 -24 15 -41 66
-19 56 -25 65 -44 62 -14 -2 -21 -10 -21 -24 -1 -12 -7 -29 -14 -38 -11 -13
-11 -20 -3 -28 7 -7 12 -17 12 -23 0 -5 -5 -2 -11 8 -15 25 -38 21 -45 -8 -7
-29 38 -115 61 -115 18 0 20 -40 3 -41 -7 -1 -22 -2 -33 -3 -17 -1 -21 -10
-26 -61 -3 -33 -11 -72 -19 -87 -10 -22 -10 -30 0 -43 13 -16 7 -45 -10 -45
-5 0 -10 13 -10 28 0 15 -4 32 -9 38 -14 14 -20 580 -13 1154 8 536 6 558 -33
574 -23 8 -9 26 20 26 15 0 31 -10 41 -25z m252 -53 c15 -10 5 -42 -14 -42
-12 0 -34 29 -34 44 0 9 33 7 48 -2z m-638 -138 c6 -14 13 -43 16 -65 6 -38 6
-39 -24 -39 -38 0 -46 13 -43 64 3 64 33 87 51 40z m6500 -5 c4 -13 10 -41 14
-61 7 -37 6 -38 -23 -38 -49 0 -68 61 -35 108 19 28 36 24 44 -9z m-2695 -205
c25 -25 28 -54 6 -54 -11 0 -41 51 -41 70 0 15 7 12 35 -16z m-88 -28 c-4 -9
-13 -16 -22 -16 -18 0 -19 5 -4 32 13 24 35 9 26 -16z m1082 -290 c15 -18 1
-80 -20 -84 -11 -2 -14 8 -13 45 1 26 2 49 3 51 3 7 20 0 30 -12z m71 -12 c0
-31 -23 -28 -28 4 -2 15 2 22 12 22 11 0 16 -9 16 -26z m-750 -27 c0 -8 -25
-39 -55 -70 -40 -41 -55 -64 -55 -84 0 -27 -60 -156 -83 -180 -7 -6 -79 -21
-161 -34 -158 -23 -149 -24 -321 12 -79 16 -194 30 -275 34 -41 2 -84 5 -95 7
-31 5 -296 -22 -340 -35 -22 -6 -69 -24 -103 -39 -35 -15 -70 -28 -78 -28 -28
0 -14 49 29 102 23 29 58 75 77 101 19 27 45 60 58 74 12 14 22 30 22 35 0 18
76 40 159 45 93 5 98 4 276 -62 174 -64 228 -75 365 -76 112 -1 133 2 200 26
90 33 178 76 280 138 80 48 100 55 100 34z m730 -137 c0 -11 -7 -20 -15 -20
-8 0 -15 9 -15 20 0 11 7 20 15 20 8 0 15 -9 15 -20z m-70 -11 c0 -18 -2 -19
-15 -9 -15 12 -12 30 6 30 5 0 9 -10 9 -21z m-109 -116 c-7 -32 -16 -120 -20
-195 l-7 -136 -54 -52 c-30 -28 -75 -61 -100 -73 -32 -16 -50 -33 -65 -64 -35
-72 -72 -45 -39 29 11 25 38 56 69 79 58 44 109 102 120 139 4 14 16 40 27 58
16 26 21 56 24 125 5 115 11 145 32 150 25 5 26 2 13 -60z m1319 37 c0 -5 -4
-10 -10 -10 -5 0 -10 5 -10 10 0 6 5 10 10 10 6 0 10 -4 10 -10z m-45 -100 c3
-5 -1 -10 -9 -10 -9 0 -16 5 -16 10 0 6 4 10 9 10 6 0 13 -4 16 -10z m-329
-75 c4 -11 15 -26 25 -33 11 -7 19 -25 19 -40 0 -15 9 -42 20 -60 20 -32 60
-129 60 -144 0 -4 -6 -5 -13 -2 -19 7 -80 141 -73 159 3 8 -1 18 -8 22 -14 9
-76 136 -76 156 1 15 37 -31 46 -58z m-4916 -24 c0 -22 -4 -42 -9 -46 -12 -7
-26 59 -16 74 13 23 25 9 25 -28z m95 -180 c5 -26 4 -32 -6 -29 -9 3 -15 22
-17 49 -2 49 11 38 23 -20z m-55 -51 c0 -15 -9 -39 -20 -53 -11 -14 -20 -33
-20 -43 0 -10 -20 -67 -44 -128 -78 -194 -106 -275 -113 -321 -3 -25 -12 -50
-20 -57 -13 -10 -14 -5 -8 38 4 27 11 57 16 66 5 9 6 23 3 31 -3 8 4 41 15 73
12 32 21 80 21 106 0 36 5 52 22 68 19 17 20 22 8 30 -11 7 -12 13 -2 35 10
22 15 25 26 15 11 -9 16 -6 21 12 4 13 21 39 36 59 20 25 29 48 29 73 0 27 3
34 15 30 8 -4 15 -18 15 -34z m-221 -20 c0 -10 -3 -8 -9 5 -12 27 -12 43 0 25
5 -8 9 -22 9 -30z m5276 -117 c4 -15 2 -23 -5 -23 -6 0 -9 4 -6 9 3 5 -1 11
-9 15 -8 3 -15 15 -15 28 0 19 2 20 14 8 8 -8 17 -25 21 -37z m46 -94 c27 -54
59 -178 48 -185 -5 -3 -14 7 -19 23 -6 15 -14 37 -19 48 -32 74 -51 155 -36
155 2 0 14 -19 26 -41z m-5331 -427 c0 -16 -7 -37 -16 -48 -14 -18 -15 -16 -9
21 10 61 25 77 25 27z m-95 -188 c11 -22 11 -34 -2 -78 -19 -63 -20 -66 -40
-66 -12 0 -14 7 -9 33 17 77 26 149 21 157 -3 4 -2 16 2 27 6 14 9 11 11 -15
2 -18 9 -44 17 -58z m5666 -101 c6 -16 6 -30 1 -35 -6 -6 -14 3 -21 23 -13 39
-13 39 -1 39 6 0 15 -12 21 -27z m-832 -263 c-48 -41 -58 -37 -12 5 20 19 39
32 42 29 3 -2 -11 -18 -30 -34z m-95 -72 c-2 -7 -28 -30 -57 -51 -29 -20 -70
-53 -92 -72 -22 -19 -44 -35 -48 -35 -5 0 -24 -12 -42 -26 -19 -14 -39 -24
-46 -22 -6 2 32 32 84 66 52 34 105 72 119 85 29 27 79 67 84 67 2 0 1 -6 -2
-12z m-314 -233 c-7 -8 -17 -15 -23 -15 -5 0 -24 -11 -41 -23 -53 -40 -177
-107 -281 -152 -22 -9 -55 -23 -73 -31 -43 -19 -58 -18 -42 1 7 8 18 15 24 15
10 0 118 54 348 172 32 16 60 34 63 39 4 5 13 9 22 9 13 0 13 -3 3 -15z m-480
-245 c0 -5 -8 -10 -17 -10 -10 0 -67 -20 -128 -45 -108 -44 -155 -55 -155 -35
0 5 18 13 40 16 22 4 43 11 46 15 3 5 14 9 24 9 18 0 41 8 120 43 41 18 70 21
70 7z m-350 -110 c0 -5 -10 -10 -22 -10 -19 0 -20 2 -8 10 19 13 30 13 30 0z
m-90 -30 c-20 -13 -63 -13 -55 0 3 6 21 10 38 10 24 0 28 -3 17 -10z m-125
-30 c-3 -5 -30 -10 -58 -10 -37 0 -48 3 -37 10 20 13 103 13 95 0z m-186 -19
c17 -11 -49 -20 -76 -10 -17 6 -9 9 52 17 6 1 16 -2 24 -7z m-706 -8 c-7 -2
-19 -2 -25 0 -7 3 -2 5 12 5 14 0 19 -2 13 -5z m587 -8 c0 -11 -118 -35 -170
-35 -69 0 -76 19 -7 21 23 0 67 6 97 13 48 10 80 11 80 1z"/>
<path d="M5175 4810 c-3 -5 1 -10 9 -10 9 0 16 5 16 10 0 6 -4 10 -9 10 -6 0
-13 -4 -16 -10z"/>
<path d="M4016 4678 c-26 -64 -27 -75 -10 -82 9 -4 27 1 40 9 19 12 24 24 24
60 0 39 -3 45 -21 45 -13 0 -24 -11 -33 -32z"/>
<path d="M3945 4640 c-8 -14 3 -30 21 -30 16 0 16 2 8 24 -7 18 -20 21 -29 6z"/>
<path d="M4025 4499 c-9 -14 3 -59 15 -59 6 0 10 16 10 35 0 34 -12 46 -25 24z"/>
<path d="M4756 4251 c-3 -5 1 -11 9 -15 9 -3 15 0 15 9 0 16 -16 20 -24 6z"/>
<path d="M4830 4229 c0 -5 5 -7 10 -4 6 3 10 8 10 11 0 2 -4 4 -10 4 -5 0 -10
-5 -10 -11z"/>
<path d="M5783 5753 c-24 -9 -13 -21 29 -31 23 -6 44 -10 45 -8 1 1 -4 12 -13
24 -15 21 -35 26 -61 15z"/>
<path d="M5933 5743 c9 -2 23 -2 30 0 6 3 -1 5 -18 5 -16 0 -22 -2 -12 -5z"/>
<path d="M7226 5743 c-16 -17 -4 -33 25 -33 19 0 29 4 27 12 -5 13 -44 29 -52
21z"/>
<path d="M7217 5686 c-6 -15 1 -26 15 -26 4 0 8 9 8 20 0 23 -15 27 -23 6z"/>
<path d="M7120 5662 c0 -20 8 -35 24 -45 45 -30 50 16 5 51 l-29 24 0 -30z"/>
<path d="M6225 5132 c-38 -69 -55 -111 -55 -139 0 -41 11 -42 34 -2 10 16 23
28 29 26 7 -2 19 -1 28 4 19 10 19 75 -1 107 -18 27 -22 27 -35 4z"/>
<path d="M6336 5054 c-8 -22 1 -31 16 -16 9 9 9 15 1 23 -7 7 -12 5 -17 -7z"/>
<path d="M7156 4911 c-4 -5 -1 -22 5 -38 10 -27 11 -27 25 -9 8 11 14 23 14
28 0 12 -38 29 -44 19z"/>
<path d="M7071 4826 c-11 -19 -10 -29 3 -55 20 -38 36 -32 36 14 0 64 -17 82
-39 41z"/>
<path d="M6095 4652 c-18 -10 -29 -24 -27 -33 3 -14 9 -15 44 -6 34 8 42 8 50
-6 13 -24 48 -22 48 2 0 24 -23 43 -42 36 -9 -4 -18 1 -21 9 -8 20 -14 19 -52
-2z"/>
<path d="M6654 4613 c4 -16 10 -43 14 -62 6 -27 13 -36 37 -43 59 -15 57 25
-5 96 -38 43 -55 46 -46 9z"/>
<path d="M5940 4612 c0 -28 47 -67 76 -64 13 2 24 -1 24 -7 0 -12 -47 -46 -78
-56 -19 -5 -25 -2 -30 17 l-6 23 -7 -25 c-16 -58 -5 -133 16 -100 4 6 23 7 46
4 l40 -7 -6 37 c-8 43 6 48 42 14 l23 -22 33 32 c21 21 39 30 50 27 17 -7 42
28 34 49 -3 6 -29 18 -58 25 -30 8 -63 20 -74 27 -11 8 -31 14 -46 14 -15 0
-29 7 -33 15 -8 22 -46 19 -46 -3z"/>
<path d="M6384 4612 c-13 -11 -25 -36 -29 -61 -7 -40 -6 -43 12 -37 11 4 33 0
49 -9 53 -28 65 -19 40 32 -8 15 -18 41 -23 57 -10 36 -22 40 -49 18z"/>
<path d="M6700 4362 c0 -4 15 -8 34 -8 19 0 32 4 30 8 -3 4 -18 8 -35 8 -16 0
-29 -4 -29 -8z"/>
<path d="M6620 4301 c-15 -28 -13 -39 11 -51 27 -15 32 -9 24 34 -8 40 -19 46
-35 17z"/>
<path d="M6805 4271 c-3 -6 -15 -11 -25 -11 -16 0 -18 -5 -13 -35 5 -30 3 -35
-21 -41 -14 -3 -26 -10 -26 -14 0 -5 -12 -23 -26 -40 l-27 -31 21 -21 21 -21
20 24 c11 13 20 30 21 37 0 20 20 14 29 -10 21 -51 24 -64 22 -85 -3 -26 2
-28 30 -13 15 9 21 7 26 -7 7 -21 53 -73 65 -73 12 0 10 38 -2 45 -14 9 -12
41 3 57 8 7 12 18 10 25 -3 7 3 9 15 6 21 -5 62 12 62 27 0 4 -12 23 -27 40
-24 29 -31 32 -67 27 -22 -3 -45 -13 -52 -21 -6 -9 -14 -13 -17 -9 -11 10 -8
51 3 58 6 3 10 16 10 29 0 27 -44 73 -55 57z m147 -166 c0 -5 -5 -11 -11 -13
-6 -2 -11 4 -11 13 0 9 5 15 11 13 6 -2 11 -8 11 -13z"/>
<path d="M6633 4206 c-17 -10 -20 -15 -11 -24 14 -14 47 -15 67 -3 12 8 12 12
2 25 -16 18 -27 19 -58 2z"/>
<path d="M6556 4201 c-4 -7 -5 -15 -2 -18 9 -9 19 4 14 18 -4 11 -6 11 -12 0z"/>
<path d="M6757 3978 c-6 -45 8 -68 41 -68 13 0 12 3 -2 19 -10 11 -15 31 -14
51 4 50 -18 48 -25 -2z"/>
<path d="M3145 4976 c-29 -23 -105 -42 -105 -27 0 8 -51 34 -55 29 -9 -11 -13
-88 -5 -88 5 0 13 0 17 0 4 0 8 6 9 13 3 33 5 37 19 37 8 0 15 -7 15 -15 0 -9
11 -20 24 -24 13 -5 26 -17 29 -25 9 -24 24 -19 39 12 7 15 15 25 18 22 12
-11 50 37 50 62 0 34 -15 35 -55 4z"/>
<path d="M2620 4880 c0 -5 7 -10 15 -10 8 0 15 5 15 10 0 6 -7 10 -15 10 -8 0
-15 -4 -15 -10z"/>
<path d="M2772 4855 c2 -17 7 -24 16 -20 16 6 28 -23 14 -37 -13 -13 -4 -38
14 -38 8 0 22 -16 31 -35 9 -19 20 -32 25 -29 8 5 12 -9 9 -33 -3 -22 38 -14
50 10 7 12 19 27 27 33 16 12 10 44 -8 44 -6 0 -15 -11 -20 -25 -10 -27 -40
-34 -40 -10 0 8 9 24 20 35 29 29 25 55 -10 70 -16 7 -40 22 -53 34 -12 12
-35 22 -50 24 -23 1 -26 -2 -25 -23z"/>
<path d="M3180 4815 c0 -17 5 -25 13 -22 6 2 12 12 12 22 0 10 -6 20 -12 23
-8 2 -13 -6 -13 -23z"/>
<path d="M3116 4791 c-3 -5 1 -15 10 -22 13 -10 17 -10 24 1 5 8 6 18 4 22 -7
11 -31 10 -38 -1z"/>
<path d="M2790 4620 c-15 -46 -2 -90 26 -90 14 0 16 8 10 57 -9 74 -19 84 -36
33z"/>
<path d="M2746 4195 c4 -8 10 -15 15 -15 4 0 6 7 3 15 -4 8 -10 15 -15 15 -4
0 -6 -7 -3 -15z"/>
<path d="M3065 3390 c3 -5 11 -10 16 -10 6 0 7 5 4 10 -3 6 -11 10 -16 10 -6
0 -7 -4 -4 -10z"/>
<path d="M1792 4288 c-19 -19 -15 -50 6 -46 9 1 23 -1 30 -5 13 -9 35 33 23
44 -14 15 -48 18 -59 7z"/>
<path d="M1896 4145 c4 -8 10 -12 15 -9 11 6 2 24 -11 24 -5 0 -7 -7 -4 -15z"/>
<path d="M1906 4089 c-9 -46 -7 -79 4 -79 6 0 10 25 10 55 0 62 -5 70 -14 24z"/>
<path d="M1670 3652 c0 -26 11 -34 27 -21 10 9 10 15 2 25 -16 19 -29 17 -29
-4z"/>
<path d="M3961 3876 c-27 -44 -26 -54 4 -48 35 6 69 50 54 68 -18 22 -36 16
-58 -20z"/>
<path d="M5148 3864 c-29 -15 -37 -34 -15 -34 18 1 50 27 46 39 -3 5 -15 3
-31 -5z"/>
</g>
</svg>
